<svg width="341" height="5382" viewBox="0 0 341 5382" fill="none" xmlns="http://www.w3.org/2000/svg">
<path opacity="0.5" d="M187.78 6C187.78 111.49 249.372 83.9927 249.372 260.976C249.372 437.96 30.0448 435.96 30.0448 581.446C30.0448 726.933 198.797 745.431 198.797 876.919C198.797 1008.41 198.797 967.91 198.797 967.91C198.797 967.91 198.797 1498.36 198.797 1748.34C198.797 1998.31 0 1937.82 0 1984.82C0 2031.81 335 1973.82 335 2116.8C335 2259.79 198.797 2261.29 198.797 2324.78C198.797 2388.28 198.797 2858.73 198.797 2993.22C198.797 3127.71 30.0448 3130.21 30.0448 3269.7C30.0448 3409.18 187.78 3434.18 187.78 3578.67C187.78 3723.15 187.78 4089.12 187.78 4222.61C187.78 4356.09 70.1046 4368.09 70.1046 4509.58C70.1046 4651.07 249.372 4744.06 249.372 4833.05C249.372 4922.04 196.725 4935.18 187.78 5016.53C177.56 5109.49 187.78 5376 187.78 5376" stroke="#2AAACC" stroke-width="11" stroke-linecap="round" stroke-dasharray="6 26"/>
</svg>
