<svg xmlns="http://www.w3.org/2000/svg" width="1398" height="4997" viewBox="0 0 1398 4997">
    <path fill="none" fill-rule="evenodd" stroke="#2AAACC" stroke-dasharray="6,26" stroke-linecap="round" stroke-width="11" d="M835 197.5c-119.5 0-406-325-535.5-129.5s-80.198 394 109 477c189.198 83 982.683-132.646 884.685 229.235-98 361.881-536.993 21.287-802.489 47.766-265.496 26.48-471.993 133.954-471.993 323.46 0 189.508 67.971 385.765 351.995 385.765 284.023 0 580.674-599.385 834.488-339.555C1459 1451.5 827.69 1721.253 606.194 1796.017c-221.496 74.765-713.49 18.172-576.491 356.69 136.998 338.517 410.099-170.817 668.595-61.785 258.496 109.031 670.885-152.644 692.885 173.931 12.808 190.126-125.498 361.362-378.994 361.362-253.497 0-926.987-184.315-926.987 136.03s377.994 57.112 487.493 228.966c109.498 171.855-138.498 290.232-58.5 445.472 80 155.24 718.99-435.088 820.489-16.095 101.498 418.993-392.494 602.27-794.989 588.771-402.494-13.5-598.991 417.955-406.494 615.769 192.497 197.815 366.995-546.196 642.99-374.342 275.997 171.855-59.498 788.662-203.496 738.3-143.998-50.362-132.498-233.64-58.5-281.405 49.333-31.845 116.832-59.362 202.498-82.553" opacity=".5"/>
</svg>
